<svg width="29" height="25" fill="none" xmlns="http://www.w3.org/2000/svg"><g clip-path="url('#clip0_14680_306')"><path d="M25.698.706c-.056-.035-.11-.062-.166-.09a4.631 4.631 0 0 0-2.18-.538h-.008c-.83.001-1.647.22-2.367.637a4.78 4.78 0 0 0-1.74 1.736l-.012.023a4.633 4.633 0 0 0-.603 1.924l-.001.018H8.678L7.566 1.718A2.769 2.769 0 0 0 6.274.306 2.745 2.745 0 0 0 4.38.074L4.399.07 1.037.838l.208.923L4.607.993c.418-.096.856-.04 1.238.156.382.198.682.524.848.922l.004.012.965 2.334H1.348l10.557 10.617v7.774c-2.451.175-4.142.992-4.142 2.005v.189h10.174v-.189c0-1.012-1.694-1.833-4.143-2.005v-7.774l6.508-6.545c.204.174.432.336.672.478l.023.012a4.715 4.715 0 0 0 3.586.456 4.742 4.742 0 0 0 2.862-2.22 4.79 4.79 0 0 0 .474-3.603 4.763 4.763 0 0 0-2.19-2.891l-.024-.013-.007-.002Zm1.035 3.653-2.583.008 1.285-2.25A3.446 3.446 0 0 1 26.73 4.34l.002.02Zm-2.111-2.717-1.285 2.256-1.3-2.243c.416-.172.86-.26 1.31-.258.459 0 .897.09 1.298.253l-.023-.008ZM20.364 3.13c.226-.395.514-.727.854-.995l.008-.005 1.299 2.243-2.577.007c.058-.468.205-.89.424-1.267l-.008.016v.001ZM4.514 5.735h3.689l.507 1.237H5.745l-1.23-1.237Zm15.427 1.238h-.843v.006H9.722l-.507-1.236H21.16l-1.22 1.23Zm2.117 1.069 1.286-2.257 1.299 2.243c-.387.165-.836.26-1.307.26-.46 0-.9-.09-1.3-.256l.022.01Zm4.258-1.482a3.428 3.428 0 0 1-.853.995l-.007.005-1.3-2.242 2.578-.007c-.06.445-.205.875-.426 1.265l.01-.017-.002.001Z" fill="#7E8FDD"/></g><defs><clipPath id="clip0_14680_306"><path fill="#fff" d="M0 0h29v25H0z"/></clipPath></defs></svg>