<svg aria-hidden="true" style="width:0;height:0;position:absolute;overflow:hidden" xmlns="http://www.w3.org/2000/svg"><defs><symbol id="icon-align-justify" viewBox="0 0 32 32"><path stroke-linejoin="round" stroke-linecap="round" stroke-width="2" d="M28 13.334H4M28 8H4M28 18.666H4M28 24H4"/></symbol><symbol id="icon-chevron-down" viewBox="0 0 32 32"><path stroke-linejoin="round" stroke-linecap="round" stroke-width="2.667" d="m8 12 8 8 8-8"/></symbol><symbol id="icon-cocktail" viewBox="0 0 37 32"><path d="M33.081.904c-.072-.045-.143-.08-.213-.116A5.99 5.99 0 0 0 30.061.1h-.011a6.134 6.134 0 0 0-5.286 3.038l-.016.029a5.914 5.914 0 0 0-.776 2.463l-.001.023h-12.8L9.739 2.201A3.55 3.55 0 0 0 5.637.096l.024-.005-4.328.984.268 1.181 4.328-.984a2.342 2.342 0 0 1 2.685 1.38l.005.016 1.243 2.987H1.734l13.591 13.591v9.951c-3.156.224-5.333 1.269-5.333 2.567v.241h13.099v-.241c0-1.296-2.181-2.347-5.333-2.567v-9.951l8.377-8.377c.263.223.556.429.865.611l.029.016a6.099 6.099 0 0 0 8.911-6.87A6.1 6.1 0 0 0 33.12.925l-.029-.016-.009-.003zm1.332 4.676-3.325.009 1.655-2.88a4.404 4.404 0 0 1 1.668 2.847l.003.024zm-2.717-3.479-1.655 2.888-1.672-2.871a4.386 4.386 0 0 1 1.685-.331 4.44 4.44 0 0 1 1.671.324l-.029-.011zm-5.481 1.905a4.357 4.357 0 0 1 1.1-1.273l.009-.007 1.672 2.871-3.317.009c.075-.599.264-1.14.547-1.621l-.011.02v.001zM5.811 7.341h4.748l.653 1.583H7.395L5.811 7.341zm19.858 1.584h-1.084v.008H12.514l-.653-1.583H27.24l-1.571 1.575zm2.727 1.368 1.655-2.888 1.672 2.871a4.336 4.336 0 0 1-1.683.333 4.392 4.392 0 0 1-1.673-.328l.029.012zm5.481-1.896a4.387 4.387 0 0 1-1.099 1.273l-.009.007-1.672-2.871 3.317-.008a4.478 4.478 0 0 1-.548 1.619l.012-.021-.001.001z"/></symbol><symbol id="icon-elements-2" viewBox="0 0 23 32"><path fill="#fdfdff" style="fill:var(--color1,#fdfdff)" d="M16.095 5.563a3.365 3.365 0 0 1 3.609 1.103 3.365 3.365 0 0 1 1.103-3.609 3.365 3.365 0 0 1-3.609-1.103 3.365 3.365 0 0 1-1.103 3.609zm-.485.192a3.247 3.247 0 0 0 1.294-4.231l.102-.054a3.248 3.248 0 0 0 4.232 1.294l.054.102a3.248 3.248 0 0 0-1.294 4.232l-.102.054a3.248 3.248 0 0 0-4.232-1.294l-.054-.102z"/><path fill="#fdfdff" style="fill:var(--color1,#fdfdff)" d="M19.83 6.101c.079.28.12.51.122.677.001.084-.007.145-.021.186s-.029.053-.038.058c-.008.004-.027.01-.069-.001s-.098-.039-.166-.086a2.83 2.83 0 0 1-.493-.479c-.375-.442-.813-1.102-1.223-1.874s-.712-1.504-.869-2.062c-.079-.28-.12-.51-.122-.677-.001-.084.008-.145.021-.186s.029-.053.038-.058c.008-.004.027-.01.069.001s.098.039.166.086c.137.095.305.257.493.479.375.442.813 1.102 1.223 1.874s.712 1.504.869 2.062zm.117 1.023c.338-.18-.058-1.585-.884-3.139s-1.77-2.668-2.108-2.488c-.338.18.058 1.585.884 3.139s1.77 2.668 2.108 2.489z"/><path fill="#fdfdff" style="fill:var(--color1,#fdfdff)" d="M16.66 5.689c-.28.079-.51.12-.677.122-.084.001-.145-.007-.186-.022s-.053-.029-.058-.038-.01-.027.001-.069a.598.598 0 0 1 .086-.166c.095-.137.257-.305.479-.493.442-.375 1.102-.813 1.874-1.223s1.504-.712 2.062-.87c.28-.079.51-.12.677-.122.084-.001.145.007.186.022s.053.029.058.038.01.027-.001.069a.598.598 0 0 1-.086.166 2.83 2.83 0 0 1-.479.493c-.442.375-1.102.813-1.874 1.223s-1.504.712-2.062.87zm-1.023.117c.18.338 1.585-.058 3.139-.884s2.668-1.77 2.489-2.108c-.18-.338-1.585.058-3.139.884s-2.668 1.77-2.488 2.108zM.509 22.715a.877.877 0 0 1 .94.287.877.877 0 0 1 .287-.94.877.877 0 0 1-.94-.287.877.877 0 0 1-.287.94zm-.126.051a.846.846 0 0 0 .337-1.102l.027-.014a.846.846 0 0 0 1.102.337l.014.027a.846.846 0 0 0-.337 1.102l-.027.014a.846.846 0 0 0-1.102-.337l-.014-.027z"/><path fill="#fdfdff" style="fill:var(--color1,#fdfdff)" d="M1.481 22.856a.734.734 0 0 1 .032.176c0 .022-.002.038-.006.048s-.008.014-.01.015c-.002.001-.007.003-.018 0s-.025-.01-.043-.022a.724.724 0 0 1-.128-.125c-.098-.115-.212-.287-.319-.488s-.185-.392-.226-.537a.734.734 0 0 1-.032-.176c0-.022.002-.038.006-.049s.008-.014.01-.015.007-.003.018 0a.14.14 0 0 1 .043.023.724.724 0 0 1 .128.125c.098.115.212.287.319.488s.185.392.226.537zm.031.266c.088-.047-.015-.413-.23-.817s-.461-.695-.549-.648.015.413.23.817c.215.405.461.695.549.648z"/><path fill="#fdfdff" style="fill:var(--color1,#fdfdff)" d="M.656 22.748a.788.788 0 0 1-.176.032c-.022 0-.038-.002-.048-.006s-.014-.008-.015-.01-.003-.007 0-.018a.145.145 0 0 1 .022-.043.724.724 0 0 1 .125-.128c.115-.098.287-.212.488-.318s.392-.186.537-.226a.788.788 0 0 1 .176-.032c.022 0 .038.002.048.006s.014.008.015.01c.001.002.003.007 0 .018s-.01.025-.022.043a.724.724 0 0 1-.125.128c-.115.098-.287.212-.488.319s-.392.186-.537.226zm-.266.031c.047.088.413-.015.817-.23s.695-.461.648-.549c-.047-.088-.413.015-.817.23s-.695.461-.648.549z"/><path fill="#7e8fdd" style="fill:var(--color3,#7e8fdd)" d="M14.34 1.399a.398.398 0 1 1-.796 0 .398.398 0 0 1 .796 0zM2.589 29.548a.797.797 0 1 1-1.594 0 .797.797 0 0 1 1.594 0z"/><path fill="#9cdfdf" style="fill:var(--color2,#9cdfdf)" d="M20.581 31.341a.598.598 0 1 1-1.195 0 .598.598 0 0 1 1.195 0z"/></symbol><symbol id="icon-elements" viewBox="0 0 23 32"><path fill="#242424" style="fill:var(--color4,#242424)" d="M16.095 5.563a3.365 3.365 0 0 1 3.609 1.103 3.365 3.365 0 0 1 1.103-3.609 3.365 3.365 0 0 1-3.609-1.103 3.365 3.365 0 0 1-1.103 3.609zm-.485.192a3.247 3.247 0 0 0 1.294-4.231l.102-.054a3.248 3.248 0 0 0 4.232 1.294l.054.102a3.248 3.248 0 0 0-1.294 4.232l-.102.054a3.248 3.248 0 0 0-4.232-1.294l-.054-.102z"/><path fill="#242424" style="fill:var(--color4,#242424)" d="M19.83 6.101c.079.28.12.51.122.677.001.084-.007.145-.021.186s-.029.053-.038.058c-.008.004-.027.01-.069-.001s-.098-.039-.166-.086a2.83 2.83 0 0 1-.493-.479c-.375-.442-.813-1.102-1.223-1.874s-.712-1.504-.869-2.062c-.079-.28-.12-.51-.122-.677-.001-.084.008-.145.021-.186s.029-.053.038-.058c.008-.004.027-.01.069.001s.098.039.166.086c.137.095.305.257.493.479.375.442.813 1.102 1.223 1.874s.712 1.504.869 2.062zm.117 1.023c.338-.18-.058-1.585-.884-3.139s-1.77-2.668-2.108-2.488c-.338.18.058 1.585.884 3.139s1.77 2.668 2.108 2.489z"/><path fill="#242424" style="fill:var(--color4,#242424)" d="M16.66 5.689c-.28.079-.51.12-.677.122-.084.001-.145-.007-.186-.022s-.053-.029-.058-.038-.01-.027.001-.069a.598.598 0 0 1 .086-.166c.095-.137.257-.305.479-.493.442-.375 1.102-.813 1.874-1.223s1.504-.712 2.062-.87c.28-.079.51-.12.677-.122.084-.001.145.007.186.022s.053.029.058.038.01.027-.001.069a.598.598 0 0 1-.086.166 2.83 2.83 0 0 1-.479.493c-.442.375-1.102.813-1.874 1.223s-1.504.712-2.062.87zm-1.023.117c.18.338 1.585-.058 3.139-.884s2.668-1.77 2.489-2.108c-.18-.338-1.585.058-3.139.884s-2.668 1.77-2.488 2.108zM.509 22.715a.877.877 0 0 1 .94.287.877.877 0 0 1 .287-.94.877.877 0 0 1-.94-.287.877.877 0 0 1-.287.94zm-.126.051a.846.846 0 0 0 .337-1.102l.027-.014a.846.846 0 0 0 1.102.337l.014.027a.846.846 0 0 0-.337 1.102l-.027.014a.846.846 0 0 0-1.102-.337l-.014-.027z"/><path fill="#242424" style="fill:var(--color4,#242424)" d="M1.481 22.856a.734.734 0 0 1 .032.176c0 .022-.002.038-.006.048s-.008.014-.01.015c-.002.001-.007.003-.018 0s-.025-.01-.043-.022a.724.724 0 0 1-.128-.125c-.098-.115-.212-.287-.319-.488s-.185-.392-.226-.537a.734.734 0 0 1-.032-.176c0-.022.002-.038.006-.049s.008-.014.01-.015.007-.003.018 0a.14.14 0 0 1 .043.023.724.724 0 0 1 .128.125c.098.115.212.287.319.488s.185.392.226.537zm.031.266c.088-.047-.015-.413-.23-.817s-.461-.695-.549-.648.015.413.23.817c.215.405.461.695.549.648z"/><path fill="#242424" style="fill:var(--color4,#242424)" d="M.656 22.748a.788.788 0 0 1-.176.032c-.022 0-.038-.002-.048-.006s-.014-.008-.015-.01-.003-.007 0-.018a.145.145 0 0 1 .022-.043.724.724 0 0 1 .125-.128c.115-.098.287-.212.488-.318s.392-.186.537-.226a.788.788 0 0 1 .176-.032c.022 0 .038.002.048.006s.014.008.015.01c.001.002.003.007 0 .018s-.01.025-.022.043a.724.724 0 0 1-.125.128c-.115.098-.287.212-.488.319s-.392.186-.537.226zm-.266.031c.047.088.413-.015.817-.23s.695-.461.648-.549c-.047-.088-.413.015-.817.23s-.695.461-.648.549z"/><path fill="#7e8fdd" style="fill:var(--color3,#7e8fdd)" d="M14.34 1.399a.398.398 0 1 1-.796 0 .398.398 0 0 1 .796 0zM2.589 29.548a.797.797 0 1 1-1.594 0 .797.797 0 0 1 1.594 0z"/><path fill="#9cdfdf" style="fill:var(--color2,#9cdfdf)" d="M20.581 31.341a.598.598 0 1 1-1.195 0 .598.598 0 0 1 1.195 0z"/></symbol><symbol id="icon-heart" viewBox="0 0 32 32"><path stroke-linejoin="round" stroke-linecap="round" stroke-width="2.667" d="M27.788 6.146a7.345 7.345 0 0 0-5.187-2.15 7.33 7.33 0 0 0-5.187 2.15l-1.413 1.413-1.413-1.413a7.333 7.333 0 0 0-10.374 0 7.333 7.333 0 0 0 0 10.374l11.787 11.787L27.788 16.52a7.345 7.345 0 0 0 2.149-5.187 7.33 7.33 0 0 0-2.149-5.187z"/></symbol><symbol id="icon-Off" viewBox="0 0 62 32"><path fill="#9cdfdf" style="fill:var(--color2,#9cdfdf)" d="M16.571 2.857c7.259 0 13.143 5.884 13.143 13.143S23.83 29.143 16.571 29.143 3.428 23.259 3.428 16 9.312 2.857 16.571 2.857z"/><path fill="none" stroke="#fdfdff" style="stroke:var(--color1,#fdfdff)" stroke-width="1.714" d="M16.571.857h28.571c8.363 0 15.143 6.78 15.143 15.143s-6.78 15.143-15.143 15.143H16.571c-8.363 0-15.143-6.78-15.143-15.143S8.208.857 16.571.857z"/></symbol><symbol id="icon-search" viewBox="0 0 32 32"><path d="m29.092 31.514-6.85-6.862c-1.077.935-2.334 1.663-3.77 2.185s-2.962.782-4.578.782c-3.877 0-7.163-1.349-9.855-4.046S0 17.621 0 13.809c0-3.812 1.346-7.067 4.039-9.764S9.999-.001 13.84-.001c3.806 0 7.046 1.349 9.721 4.046s4.012 5.952 4.012 9.764c0 1.546-.251 3.039-.754 4.477s-1.257 2.787-2.262 4.046l6.958 6.862c.323.288.485.656.485 1.106s-.18.854-.539 1.214c-.323.324-.718.486-1.185.486s-.862-.162-1.185-.486zM13.84 24.383c2.908 0 5.385-1.034 7.432-3.102s3.07-4.558 3.07-7.471-1.023-5.403-3.07-7.471c-2.046-2.068-4.524-3.102-7.432-3.102-2.944 0-5.448 1.034-7.513 3.102S3.23 10.897 3.23 13.81c0 2.913 1.032 5.403 3.097 7.471s4.569 3.102 7.513 3.102z"/></symbol><symbol id="icon-trash-01" viewBox="0 0 32 32"><path stroke-linejoin="round" stroke-linecap="round" stroke-width="2.667" d="M21.333 8V6.933c0-1.493 0-2.24-.291-2.811a2.666 2.666 0 0 0-1.165-1.165c-.57-.291-1.317-.291-2.811-.291h-2.133c-1.493 0-2.24 0-2.811.291-.502.256-.91.664-1.165 1.165-.291.57-.291 1.317-.291 2.811V8m2.667 7.333V22m5.334-6.667V22M4 8h24m-2.667 0v14.933c0 2.24 0 3.36-.436 4.216a4.006 4.006 0 0 1-1.748 1.748c-.856.436-1.976.436-4.216.436h-5.867c-2.24 0-3.36 0-4.216-.436a4.001 4.001 0 0 1-1.748-1.748c-.436-.856-.436-1.976-.436-4.216V8"/></symbol><symbol id="icon-u_facebook-f" viewBox="0 0 32 32"><path fill="#fdfdff" style="fill:var(--color1,#fdfdff)" d="M18.425 10.801h1.462V8.328a20.221 20.221 0 0 0-2.131-.109c-2.116 0-3.562 1.291-3.562 3.656v2.038h-2.388v2.769h2.388v7.093h2.862v-7.093h2.38l.358-2.769h-2.738v-1.765c0-.817.218-1.346 1.369-1.346z"/><path fill="none" stroke="rgba(253, 253, 255, 0.5)" style="stroke:var(--color1,rgba(253,253,255,.5))" d="M6 .5h20A5.5 5.5 0 0 1 31.5 6v20a5.5 5.5 0 0 1-5.5 5.5H6A5.5 5.5 0 0 1 .5 26V6A5.5 5.5 0 0 1 6 .5z"/></symbol><symbol id="icon-u_instagram-2" viewBox="0 0 32 32"><path fill="#fdfdff" style="fill:var(--color1,#fdfdff)" d="M20.531 10.5c-.748-.044-2.288-.088-4.62-.088h-.308c-2.244 0-3.74.044-4.488.132-1.012.088-1.716.352-2.112.704-.352.308-.616.88-.704 1.628-.044.484-.088 1.496-.088 3.036v.22c0 1.452.044 2.464.132 2.948.132.704.352 1.232.792 1.54.44.352 1.188.572 2.244.66.748.044 2.288.088 4.62.088h.308c2.244 0 3.74-.044 4.488-.132 1.012-.088 1.716-.352 2.112-.704.352-.308.616-.88.704-1.628.044-.484.088-1.496.088-3.036v-.22c0-1.452-.044-2.464-.132-2.948-.132-.704-.352-1.232-.792-1.54-.44-.352-1.188-.572-2.244-.66zm-1.716 5.412-4.84 2.904v-5.808l4.84 2.904z"/><path fill="none" stroke="rgba(253, 253, 255, 0.5)" style="stroke:var(--color1,rgba(253,253,255,.5))" d="M6 .5h20A5.5 5.5 0 0 1 31.5 6v20a5.5 5.5 0 0 1-5.5 5.5H6A5.5 5.5 0 0 1 .5 26V6A5.5 5.5 0 0 1 6 .5z"/></symbol><symbol id="icon-u_instagram" viewBox="0 0 32 32"><path fill="#fdfdff" style="fill:var(--color1,#fdfdff)" d="M19.991 11.115a.9.9 0 0 0-.828.553.892.892 0 0 0 .194.977.892.892 0 0 0 .977.194.895.895 0 0 0-.343-1.724zm3.435 1.807a5.711 5.711 0 0 0-.343-1.815 3.69 3.69 0 0 0-.866-1.322 3.518 3.518 0 0 0-1.322-.859 5.462 5.462 0 0 0-1.814-.351c-.791-.045-1.045-.045-3.076-.045s-2.285 0-3.076.045a5.462 5.462 0 0 0-1.814.351c-.499.184-.95.478-1.322.859-.383.37-.676.822-.859 1.322a5.468 5.468 0 0 0-.351 1.815c-.045.791-.045 1.045-.045 3.076s0 2.285.045 3.076c.013.62.132 1.234.351 1.814.182.5.476.952.859 1.322.371.381.823.674 1.322.859.58.219 1.194.338 1.814.351.791.045 1.045.045 3.076.045s2.285 0 3.076-.045a5.437 5.437 0 0 0 1.814-.351c.5-.182.952-.476 1.322-.859.383-.371.678-.823.866-1.322a5.65 5.65 0 0 0 .343-1.814c0-.791.045-1.045.045-3.076s0-2.285-.045-3.076zm-1.344 6.063a4.167 4.167 0 0 1-.254 1.389 2.286 2.286 0 0 1-.56.859 2.373 2.373 0 0 1-.859.56 4.193 4.193 0 0 1-1.389.254c-.747.037-1.023.045-2.987.045s-2.24 0-2.987-.045a4.3 4.3 0 0 1-1.449-.224 2.433 2.433 0 0 1-.821-.56 2.245 2.245 0 0 1-.553-.859 4.164 4.164 0 0 1-.299-1.419c0-.747-.045-1.023-.045-2.987s0-2.24.045-2.987a4.14 4.14 0 0 1 .261-1.419 2.24 2.24 0 0 1 .59-.821c.227-.257.507-.461.821-.597a4.29 4.29 0 0 1 1.419-.254c.747 0 1.023-.045 2.987-.045s2.24 0 2.987.045c.474.005.944.091 1.389.254.339.126.644.331.889.597.245.229.436.51.56.821.166.455.252.935.254 1.419.037.747.045 1.023.045 2.987s-.007 2.24-.045 2.987zm-6.078-6.817a3.833 3.833 0 0 0-3.749 4.582 3.834 3.834 0 0 0 3.011 3.005 3.833 3.833 0 0 0 3.93-1.63 3.836 3.836 0 0 0-.477-4.841 3.831 3.831 0 0 0-2.715-1.117zm0 6.316a2.484 2.484 0 0 1-2.438-2.972 2.49 2.49 0 0 1 1.953-1.954 2.482 2.482 0 0 1 2.553 1.058 2.489 2.489 0 0 1-.309 3.139 2.484 2.484 0 0 1-1.758.728z"/><path fill="none" stroke="rgba(253, 253, 255, 0.5)" style="stroke:var(--color1,rgba(253,253,255,.5))" d="M6 .5h20A5.5 5.5 0 0 1 31.5 6v20a5.5 5.5 0 0 1-5.5 5.5H6A5.5 5.5 0 0 1 .5 26V6A5.5 5.5 0 0 1 6 .5z"/></symbol><symbol id="icon-x" viewBox="0 0 32 32"><path fill="none" stroke-linejoin="round" stroke-linecap="round" stroke-width="2" d="M24 8 8 24M8 8l16 16"/></symbol><symbol id="icon-newspaper" viewBox="0 0 32 32"><path d="M28 8V4H0v22a2 2 0 0 0 2 2h27a3 3 0 0 0 3-3V8h-4zm-2 18H2V6h24v20zM4 10h20v2H4zm12 4h8v2h-8zm0 4h8v2h-8zm0 4h6v2h-6zM4 14h10v10H4z"/></symbol></defs></svg>