<svg aria-hidden="true" style="width:0;height:0;position:absolute;overflow:hidden" xmlns="http://www.w3.org/2000/svg"><defs><symbol id="icon-search" viewBox="0 0 32 32"><path d="m29.092 31.514-6.85-6.862c-1.077.935-2.334 1.663-3.77 2.185s-2.962.782-4.578.782c-3.877 0-7.163-1.349-9.855-4.046S0 17.621 0 13.809c0-3.812 1.346-7.067 4.039-9.764S9.999-.001 13.84-.001c3.806 0 7.046 1.349 9.721 4.046s4.012 5.952 4.012 9.764c0 1.546-.251 3.039-.754 4.477s-1.257 2.787-2.262 4.046l6.958 6.862c.323.288.485.656.485 1.106s-.18.854-.539 1.214c-.323.324-.718.486-1.185.486s-.862-.162-1.185-.486zM13.84 24.383c2.908 0 5.385-1.034 7.432-3.102s3.07-4.558 3.07-7.471-1.023-5.403-3.07-7.471c-2.046-2.068-4.524-3.102-7.432-3.102-2.944 0-5.448 1.034-7.513 3.102S3.23 10.897 3.23 13.81c0 2.913 1.032 5.403 3.097 7.471s4.569 3.102 7.513 3.102z"/></symbol></defs></svg>