<svg aria-hidden="true" style="position: absolute; width: 0; height: 0; overflow: hidden;" version="1.1" xmlns="http://www.w3.org/2000/svg" xmlns:xlink="http://www.w3.org/1999/xlink">
<defs>
<symbol id="icon-align-justify" viewBox="0 0 32 32">
<path stroke-linejoin="round" stroke-linecap="round" stroke-miterlimit="4" stroke-width="2" d="M28 13.334h-24"></path>
<path stroke-linejoin="round" stroke-linecap="round" stroke-miterlimit="4" stroke-width="2" d="M28 8h-24"></path>
<path stroke-linejoin="round" stroke-linecap="round" stroke-miterlimit="4" stroke-width="2" d="M28 18.666h-24"></path>
<path stroke-linejoin="round" stroke-linecap="round" stroke-miterlimit="4" stroke-width="2" d="M28 24h-24"></path>
</symbol>
<symbol id="icon-chevron-down" viewBox="0 0 32 32"> 
<path stroke="#fdfdff" style="stroke: var(--color1, #fdfdff)" stroke-linejoin="round" stroke-linecap="round" stroke-miterlimit="4" stroke-width="2.6667" d="M8 12l8 8 8-8"></path>
</symbol>
<symbol id="icon-cocktail" viewBox="0 0 37 32">
<path d="M33.081 0.904c-0.072-0.045-0.143-0.080-0.213-0.116-0.865-0.455-1.829-0.691-2.807-0.688h-0.011c-1.070 0.002-2.12 0.283-3.047 0.816s-1.699 1.299-2.239 2.222l-0.016 0.029c-0.437 0.754-0.702 1.595-0.776 2.463l-0.001 0.023h-12.8l-1.432-3.452c-0.322-0.781-0.911-1.423-1.663-1.808s-1.616-0.491-2.439-0.297l0.024-0.005-4.328 0.984 0.268 1.181 4.328-0.984c0.538-0.123 1.103-0.052 1.594 0.201s0.878 0.67 1.091 1.179l0.005 0.016 1.243 2.987h-8.128l13.591 13.591v9.951c-3.156 0.224-5.333 1.269-5.333 2.567v0.241h13.099v-0.241c0-1.296-2.181-2.347-5.333-2.567v-9.951l8.377-8.377c0.263 0.223 0.556 0.429 0.865 0.611l0.029 0.016c1.401 0.797 3.061 1.007 4.616 0.584s2.88-1.444 3.685-2.841c0.805-1.397 1.024-3.055 0.61-4.613s-1.428-2.888-2.82-3.701l-0.029-0.016-0.009-0.003zM34.413 5.58l-3.325 0.009 1.655-2.88c0.904 0.697 1.502 1.718 1.668 2.847l0.003 0.024zM31.696 2.101l-1.655 2.888-1.672-2.871c0.534-0.22 1.107-0.333 1.685-0.331 0.591 0 1.155 0.115 1.671 0.324l-0.029-0.011zM26.215 4.006c0.291-0.505 0.661-0.931 1.1-1.273l0.009-0.007 1.672 2.871-3.317 0.009c0.075-0.599 0.264-1.14 0.547-1.621l-0.011 0.020v0.001zM5.811 7.341h4.748l0.653 1.583h-3.817l-1.584-1.583zM25.669 8.925h-1.084v0.008h-12.071l-0.653-1.583h15.379l-1.571 1.575zM28.396 10.293l1.655-2.888 1.672 2.871c-0.497 0.211-1.076 0.333-1.683 0.333-0.592 0-1.157-0.116-1.673-0.328l0.029 0.012zM33.877 8.397c-0.281 0.491-0.654 0.924-1.099 1.273l-0.009 0.007-1.672-2.871 3.317-0.008c-0.077 0.57-0.263 1.119-0.548 1.619l0.012-0.021-0.001 0.001z"></path>
</symbol>
<symbol id="icon-elements-2" viewBox="0 0 23 32"> 
<path fill="#fdfdff" style="fill: var(--color1, #fdfdff)" d="M16.095 5.563c1.312-0.406 2.748 0.033 3.609 1.103-0.406-1.312 0.033-2.748 1.103-3.609-1.312 0.406-2.748-0.033-3.609-1.103 0.406 1.312-0.033 2.748-1.103 3.609zM15.61 5.755c1.474-0.853 2.039-2.7 1.294-4.231l0.102-0.054c0.853 1.474 2.7 2.039 4.232 1.294l0.054 0.102c-1.474 0.853-2.039 2.7-1.294 4.232l-0.102 0.054c-0.853-1.474-2.7-2.039-4.232-1.294l-0.054-0.102z"></path>
<path fill="#fdfdff" style="fill: var(--color1, #fdfdff)" d="M19.83 6.101c0.079 0.28 0.12 0.51 0.122 0.677 0.001 0.084-0.007 0.145-0.021 0.186s-0.029 0.053-0.038 0.058c-0.008 0.004-0.027 0.010-0.069-0.001s-0.098-0.039-0.166-0.086c-0.137-0.095-0.305-0.258-0.493-0.479-0.375-0.442-0.813-1.102-1.223-1.874s-0.712-1.504-0.869-2.062c-0.079-0.28-0.12-0.51-0.122-0.677-0.001-0.084 0.008-0.145 0.021-0.186s0.029-0.053 0.038-0.058c0.008-0.004 0.027-0.010 0.069 0.001s0.098 0.039 0.166 0.086c0.137 0.095 0.305 0.257 0.493 0.479 0.375 0.442 0.813 1.102 1.223 1.874s0.712 1.504 0.869 2.062zM19.947 7.124c0.338-0.18-0.058-1.585-0.884-3.139s-1.77-2.668-2.108-2.488c-0.338 0.18 0.058 1.585 0.884 3.139s1.77 2.668 2.108 2.489z"></path>
<path fill="#fdfdff" style="fill: var(--color1, #fdfdff)" d="M16.66 5.689c-0.28 0.079-0.51 0.12-0.677 0.122-0.084 0.001-0.145-0.007-0.186-0.022s-0.053-0.029-0.058-0.038-0.010-0.027 0.001-0.069c0.012-0.042 0.039-0.098 0.086-0.166 0.095-0.137 0.257-0.305 0.479-0.493 0.442-0.375 1.102-0.813 1.874-1.223s1.504-0.712 2.062-0.87c0.28-0.079 0.51-0.12 0.677-0.122 0.084-0.001 0.145 0.007 0.186 0.022s0.053 0.029 0.058 0.038 0.010 0.027-0.001 0.069c-0.012 0.042-0.039 0.098-0.086 0.166-0.095 0.137-0.258 0.305-0.479 0.493-0.442 0.375-1.102 0.813-1.874 1.223s-1.504 0.712-2.062 0.87zM15.637 5.806c0.18 0.338 1.585-0.058 3.139-0.884s2.668-1.77 2.489-2.108c-0.18-0.338-1.585 0.058-3.139 0.884s-2.668 1.77-2.488 2.108z"></path>
<path fill="#fdfdff" style="fill: var(--color1, #fdfdff)" d="M0.509 22.715c0.342-0.106 0.716 0.009 0.94 0.287-0.106-0.342 0.009-0.716 0.287-0.94-0.342 0.106-0.716-0.009-0.94-0.287 0.106 0.342-0.009 0.716-0.287 0.94zM0.383 22.766c0.384-0.222 0.531-0.703 0.337-1.102l0.027-0.014c0.222 0.384 0.703 0.531 1.102 0.337l0.014 0.027c-0.384 0.222-0.531 0.703-0.337 1.102l-0.027 0.014c-0.222-0.384-0.703-0.531-1.102-0.337l-0.014-0.027z"></path>
<path fill="#fdfdff" style="fill: var(--color1, #fdfdff)" d="M1.481 22.856c0.021 0.073 0.031 0.133 0.032 0.176 0 0.022-0.002 0.038-0.006 0.048s-0.008 0.014-0.010 0.015c-0.002 0.001-0.007 0.003-0.018-0s-0.025-0.010-0.043-0.022c-0.036-0.025-0.079-0.067-0.128-0.125-0.098-0.115-0.212-0.287-0.319-0.488s-0.185-0.392-0.226-0.537c-0.021-0.073-0.031-0.133-0.032-0.176-0-0.022 0.002-0.038 0.006-0.049s0.008-0.014 0.010-0.015 0.007-0.003 0.018 0c0.011 0.003 0.025 0.010 0.043 0.023 0.036 0.025 0.079 0.067 0.128 0.125 0.098 0.115 0.212 0.287 0.319 0.488s0.185 0.392 0.226 0.537zM1.512 23.122c0.088-0.047-0.015-0.413-0.23-0.817s-0.461-0.695-0.549-0.648 0.015 0.413 0.23 0.817c0.215 0.405 0.461 0.695 0.549 0.648z"></path>
<path fill="#fdfdff" style="fill: var(--color1, #fdfdff)" d="M0.656 22.748c-0.073 0.020-0.133 0.031-0.176 0.032-0.022 0-0.038-0.002-0.048-0.006s-0.014-0.008-0.015-0.010-0.003-0.007 0-0.018c0.003-0.011 0.010-0.026 0.022-0.043 0.025-0.036 0.067-0.079 0.125-0.128 0.115-0.098 0.287-0.212 0.488-0.318s0.392-0.186 0.537-0.226c0.073-0.020 0.133-0.031 0.176-0.032 0.022-0 0.038 0.002 0.048 0.006s0.014 0.008 0.015 0.010c0.001 0.002 0.003 0.007-0 0.018s-0.010 0.025-0.022 0.043c-0.025 0.036-0.067 0.079-0.125 0.128-0.115 0.098-0.287 0.212-0.488 0.319s-0.392 0.186-0.537 0.226zM0.39 22.779c0.047 0.088 0.413-0.015 0.817-0.23s0.695-0.461 0.648-0.549c-0.047-0.088-0.413 0.015-0.817 0.23s-0.695 0.461-0.648 0.549z"></path>
<path fill="#7e8fdd" style="fill: var(--color3, #7e8fdd)" d="M14.34 1.399c0 0.22-0.178 0.398-0.398 0.398s-0.398-0.178-0.398-0.398c0-0.22 0.178-0.398 0.398-0.398s0.398 0.178 0.398 0.398z"></path>
<path fill="#7e8fdd" style="fill: var(--color3, #7e8fdd)" d="M2.589 29.548c0 0.44-0.357 0.797-0.797 0.797s-0.797-0.357-0.797-0.797c0-0.44 0.357-0.797 0.797-0.797s0.797 0.357 0.797 0.797z"></path>
<path fill="#9cdfdf" style="fill: var(--color2, #9cdfdf)" d="M20.581 31.341c0 0.33-0.267 0.598-0.598 0.598s-0.598-0.267-0.598-0.598c0-0.33 0.267-0.598 0.598-0.598s0.598 0.267 0.598 0.598z"></path>
</symbol>
<symbol id="icon-elements" viewBox="0 0 23 32">
<path fill="#242424" style="fill: var(--color4, #242424)" d="M16.095 5.563c1.312-0.406 2.748 0.033 3.609 1.103-0.406-1.312 0.033-2.748 1.103-3.609-1.312 0.406-2.748-0.033-3.609-1.103 0.406 1.312-0.033 2.748-1.103 3.609zM15.61 5.755c1.474-0.853 2.039-2.7 1.294-4.231l0.102-0.054c0.853 1.474 2.7 2.039 4.232 1.294l0.054 0.102c-1.474 0.853-2.039 2.7-1.294 4.232l-0.102 0.054c-0.853-1.474-2.7-2.039-4.232-1.294l-0.054-0.102z"></path>
<path fill="#242424" style="fill: var(--color4, #242424)" d="M19.83 6.101c0.079 0.28 0.12 0.51 0.122 0.677 0.001 0.084-0.007 0.145-0.021 0.186s-0.029 0.053-0.038 0.058c-0.008 0.004-0.027 0.010-0.069-0.001s-0.098-0.039-0.166-0.086c-0.137-0.095-0.305-0.258-0.493-0.479-0.375-0.442-0.813-1.102-1.223-1.874s-0.712-1.504-0.869-2.062c-0.079-0.28-0.12-0.51-0.122-0.677-0.001-0.084 0.008-0.145 0.021-0.186s0.029-0.053 0.038-0.058c0.008-0.004 0.027-0.010 0.069 0.001s0.098 0.039 0.166 0.086c0.137 0.095 0.305 0.257 0.493 0.479 0.375 0.442 0.813 1.102 1.223 1.874s0.712 1.504 0.869 2.062zM19.947 7.124c0.338-0.18-0.058-1.585-0.884-3.139s-1.77-2.668-2.108-2.488c-0.338 0.18 0.058 1.585 0.884 3.139s1.77 2.668 2.108 2.489z"></path>
<path fill="#242424" style="fill: var(--color4, #242424)" d="M16.66 5.689c-0.28 0.079-0.51 0.12-0.677 0.122-0.084 0.001-0.145-0.007-0.186-0.022s-0.053-0.029-0.058-0.038-0.010-0.027 0.001-0.069c0.012-0.042 0.039-0.098 0.086-0.166 0.095-0.137 0.257-0.305 0.479-0.493 0.442-0.375 1.102-0.813 1.874-1.223s1.504-0.712 2.062-0.87c0.28-0.079 0.51-0.12 0.677-0.122 0.084-0.001 0.145 0.007 0.186 0.022s0.053 0.029 0.058 0.038 0.010 0.027-0.001 0.069c-0.012 0.042-0.039 0.098-0.086 0.166-0.095 0.137-0.258 0.305-0.479 0.493-0.442 0.375-1.102 0.813-1.874 1.223s-1.504 0.712-2.062 0.87zM15.637 5.806c0.18 0.338 1.585-0.058 3.139-0.884s2.668-1.77 2.489-2.108c-0.18-0.338-1.585 0.058-3.139 0.884s-2.668 1.77-2.488 2.108z"></path>
<path fill="#242424" style="fill: var(--color4, #242424)" d="M0.509 22.715c0.342-0.106 0.716 0.009 0.94 0.287-0.106-0.342 0.009-0.716 0.287-0.94-0.342 0.106-0.716-0.009-0.94-0.287 0.106 0.342-0.009 0.716-0.287 0.94zM0.383 22.766c0.384-0.222 0.531-0.703 0.337-1.102l0.027-0.014c0.222 0.384 0.703 0.531 1.102 0.337l0.014 0.027c-0.384 0.222-0.531 0.703-0.337 1.102l-0.027 0.014c-0.222-0.384-0.703-0.531-1.102-0.337l-0.014-0.027z"></path>
<path fill="#242424" style="fill: var(--color4, #242424)" d="M1.481 22.856c0.021 0.073 0.031 0.133 0.032 0.176 0 0.022-0.002 0.038-0.006 0.048s-0.008 0.014-0.010 0.015c-0.002 0.001-0.007 0.003-0.018-0s-0.025-0.010-0.043-0.022c-0.036-0.025-0.079-0.067-0.128-0.125-0.098-0.115-0.212-0.287-0.319-0.488s-0.185-0.392-0.226-0.537c-0.021-0.073-0.031-0.133-0.032-0.176-0-0.022 0.002-0.038 0.006-0.049s0.008-0.014 0.010-0.015 0.007-0.003 0.018 0c0.011 0.003 0.025 0.010 0.043 0.023 0.036 0.025 0.079 0.067 0.128 0.125 0.098 0.115 0.212 0.287 0.319 0.488s0.185 0.392 0.226 0.537zM1.512 23.122c0.088-0.047-0.015-0.413-0.23-0.817s-0.461-0.695-0.549-0.648 0.015 0.413 0.23 0.817c0.215 0.405 0.461 0.695 0.549 0.648z"></path>
<path fill="#242424" style="fill: var(--color4, #242424)" d="M0.656 22.748c-0.073 0.020-0.133 0.031-0.176 0.032-0.022 0-0.038-0.002-0.048-0.006s-0.014-0.008-0.015-0.010-0.003-0.007 0-0.018c0.003-0.011 0.010-0.026 0.022-0.043 0.025-0.036 0.067-0.079 0.125-0.128 0.115-0.098 0.287-0.212 0.488-0.318s0.392-0.186 0.537-0.226c0.073-0.020 0.133-0.031 0.176-0.032 0.022-0 0.038 0.002 0.048 0.006s0.014 0.008 0.015 0.010c0.001 0.002 0.003 0.007-0 0.018s-0.010 0.025-0.022 0.043c-0.025 0.036-0.067 0.079-0.125 0.128-0.115 0.098-0.287 0.212-0.488 0.319s-0.392 0.186-0.537 0.226zM0.39 22.779c0.047 0.088 0.413-0.015 0.817-0.23s0.695-0.461 0.648-0.549c-0.047-0.088-0.413 0.015-0.817 0.23s-0.695 0.461-0.648 0.549z"></path>
<path fill="#7e8fdd" style="fill: var(--color3, #7e8fdd)" d="M14.34 1.399c0 0.22-0.178 0.398-0.398 0.398s-0.398-0.178-0.398-0.398c0-0.22 0.178-0.398 0.398-0.398s0.398 0.178 0.398 0.398z"></path>
<path fill="#7e8fdd" style="fill: var(--color3, #7e8fdd)" d="M2.589 29.548c0 0.44-0.357 0.797-0.797 0.797s-0.797-0.357-0.797-0.797c0-0.44 0.357-0.797 0.797-0.797s0.797 0.357 0.797 0.797z"></path>
<path fill="#9cdfdf" style="fill: var(--color2, #9cdfdf)" d="M20.581 31.341c0 0.33-0.267 0.598-0.598 0.598s-0.598-0.267-0.598-0.598c0-0.33 0.267-0.598 0.598-0.598s0.598 0.267 0.598 0.598z"></path>
</symbol>
<symbol id="icon-heart" viewBox="0 0 32 32">
<path   stroke-linejoin="round" stroke-linecap="round" stroke-miterlimit="4" stroke-width="2.6667" d="M27.788 6.146c-0.681-0.681-1.49-1.222-2.38-1.591s-1.844-0.559-2.807-0.559c-0.963 0-1.917 0.19-2.807 0.559s-1.699 0.909-2.38 1.591l-1.413 1.413-1.413-1.413c-1.376-1.376-3.241-2.148-5.187-2.148s-3.811 0.773-5.187 2.148c-1.376 1.376-2.148 3.241-2.148 5.187s0.773 3.811 2.148 5.187l11.787 11.787 11.787-11.787c0.681-0.681 1.222-1.49 1.591-2.38s0.558-1.844 0.558-2.807-0.19-1.917-0.558-2.807c-0.369-0.89-0.909-1.699-1.591-2.38z"></path>
</symbol>
<symbol id="icon-Off" viewBox="0 0 62 32">
<path fill="#9cdfdf" style="fill: var(--color2, #9cdfdf)" d="M16.571 2.857c7.259 0 13.143 5.884 13.143 13.143s-5.884 13.143-13.143 13.143c-7.259 0-13.143-5.884-13.143-13.143s5.884-13.143 13.143-13.143z"></path>
<path fill="none" stroke="#fdfdff" style="stroke: var(--color1, #fdfdff)" stroke-linejoin="miter" stroke-linecap="butt" stroke-miterlimit="4" stroke-width="1.7143" d="M16.571 0.857h28.571c8.363 0 15.143 6.78 15.143 15.143s-6.78 15.143-15.143 15.143h-28.571c-8.363 0-15.143-6.78-15.143-15.143s6.78-15.143 15.143-15.143z"></path>
</symbol>
<symbol id="icon-search" viewBox="0 0 32 32">
<path d="M29.092 31.514l-6.85-6.862c-1.077 0.935-2.334 1.663-3.77 2.185s-2.962 0.782-4.578 0.782c-3.877 0-7.163-1.349-9.855-4.046s-4.039-5.952-4.039-9.764c0-3.812 1.346-7.067 4.039-9.764s5.96-4.046 9.801-4.046c3.806 0 7.046 1.349 9.721 4.046s4.012 5.952 4.012 9.764c0 1.546-0.251 3.039-0.754 4.477s-1.257 2.787-2.262 4.046l6.958 6.862c0.323 0.288 0.485 0.656 0.485 1.106s-0.18 0.854-0.539 1.214c-0.323 0.324-0.718 0.486-1.185 0.486s-0.862-0.162-1.185-0.486zM13.84 24.383c2.908 0 5.385-1.034 7.432-3.102s3.070-4.558 3.070-7.471-1.023-5.403-3.070-7.471c-2.046-2.068-4.524-3.102-7.432-3.102-2.944 0-5.448 1.034-7.513 3.102s-3.097 4.558-3.097 7.471c0 2.913 1.032 5.403 3.097 7.471s4.569 3.102 7.513 3.102z"></path>
</symbol>
<symbol id="icon-trash-01" viewBox="0 0 32 32">
<path fill="none" stroke="#fdfdff" style="stroke: var(--color1, #fdfdff)" stroke-linejoin="round" stroke-linecap="round" stroke-miterlimit="4" stroke-width="2.6667" d="M21.333 8v-1.067c0-1.493 0-2.24-0.291-2.811-0.256-0.502-0.664-0.91-1.165-1.165-0.57-0.291-1.317-0.291-2.811-0.291h-2.133c-1.493 0-2.24 0-2.811 0.291-0.502 0.256-0.91 0.664-1.165 1.165-0.291 0.57-0.291 1.317-0.291 2.811v1.067M13.333 15.333v6.667M18.667 15.333v6.667M4 8h24M25.333 8v14.933c0 2.24 0 3.36-0.436 4.216-0.384 0.753-0.996 1.364-1.748 1.748-0.856 0.436-1.976 0.436-4.216 0.436h-5.867c-2.24 0-3.36 0-4.216-0.436-0.753-0.384-1.365-0.996-1.748-1.748-0.436-0.856-0.436-1.976-0.436-4.216v-14.933"></path>
</symbol>
<symbol id="icon-u_facebook-f" viewBox="0 0 32 32">
<path fill="#fdfdff" style="fill: var(--color1, #fdfdff)" d="M18.425 10.801h1.462v-2.473c-0.708-0.074-1.419-0.11-2.131-0.109-2.116 0-3.562 1.291-3.562 3.656v2.038h-2.388v2.769h2.388v7.093h2.862v-7.093h2.38l0.358-2.769h-2.738v-1.765c0-0.817 0.218-1.346 1.369-1.346z"></path>
<path fill="none" stroke="#fdfdff" style="stroke: var(--color1, #fdfdff)" stroke-linejoin="miter" stroke-linecap="butt" stroke-miterlimit="4" stroke-width="1" d="M6 0.5h20c3.038 0 5.5 2.462 5.5 5.5v20c0 3.038-2.462 5.5-5.5 5.5h-20c-3.038 0-5.5-2.462-5.5-5.5v-20c0-3.038 2.462-5.5 5.5-5.5z"></path>
</symbol>
<symbol id="icon-u_instagram-2" viewBox="0 0 32 32">
<path fill="#fdfdff" style="fill: var(--color1, #fdfdff)" d="M20.531 10.5c-0.748-0.044-2.288-0.088-4.62-0.088h-0.308c-2.244 0-3.74 0.044-4.488 0.132-1.012 0.088-1.716 0.352-2.112 0.704-0.352 0.308-0.616 0.88-0.704 1.628-0.044 0.484-0.088 1.496-0.088 3.036v0.22c0 1.452 0.044 2.464 0.132 2.948 0.132 0.704 0.352 1.232 0.792 1.54 0.44 0.352 1.188 0.572 2.244 0.66 0.748 0.044 2.288 0.088 4.62 0.088h0.308c2.244 0 3.74-0.044 4.488-0.132 1.012-0.088 1.716-0.352 2.112-0.704 0.352-0.308 0.616-0.88 0.704-1.628 0.044-0.484 0.088-1.496 0.088-3.036v-0.22c0-1.452-0.044-2.464-0.132-2.948-0.132-0.704-0.352-1.232-0.792-1.54-0.44-0.352-1.188-0.572-2.244-0.66zM18.815 15.912l-4.84 2.904v-5.808l4.84 2.904z"></path>
<path fill="none" stroke="#fdfdff" style="stroke: var(--color1, #fdfdff)" stroke-linejoin="miter" stroke-linecap="butt" stroke-miterlimit="4" stroke-width="1" d="M6 0.5h20c3.038 0 5.5 2.462 5.5 5.5v20c0 3.038-2.462 5.5-5.5 5.5h-20c-3.038 0-5.5-2.462-5.5-5.5v-20c0-3.038 2.462-5.5 5.5-5.5z"></path>
</symbol>
<symbol id="icon-u_instagram" viewBox="0 0 32 32">
<path fill="#fdfdff" style="fill: var(--color1, #fdfdff)" d="M19.991 11.115c-0.177 0-0.351 0.053-0.498 0.151s-0.262 0.238-0.33 0.402c-0.068 0.164-0.086 0.344-0.051 0.518s0.12 0.334 0.245 0.459c0.125 0.125 0.285 0.211 0.459 0.245s0.354 0.017 0.518-0.051c0.164-0.068 0.304-0.183 0.402-0.33s0.151-0.321 0.151-0.498c0-0.238-0.094-0.466-0.262-0.634s-0.396-0.262-0.634-0.262zM23.426 12.922c-0.015-0.62-0.131-1.232-0.343-1.815-0.19-0.498-0.485-0.949-0.866-1.322-0.37-0.383-0.822-0.676-1.322-0.859-0.58-0.219-1.194-0.338-1.814-0.351-0.791-0.045-1.045-0.045-3.076-0.045s-2.285 0-3.076 0.045c-0.62 0.013-1.234 0.132-1.814 0.351-0.499 0.184-0.95 0.478-1.322 0.859-0.383 0.37-0.676 0.822-0.859 1.322-0.219 0.581-0.338 1.194-0.351 1.815-0.045 0.791-0.045 1.045-0.045 3.076s0 2.285 0.045 3.076c0.013 0.62 0.132 1.234 0.351 1.814 0.182 0.5 0.476 0.952 0.859 1.322 0.371 0.381 0.823 0.674 1.322 0.859 0.58 0.219 1.194 0.338 1.814 0.351 0.791 0.045 1.045 0.045 3.076 0.045s2.285 0 3.076-0.045c0.62-0.013 1.234-0.131 1.814-0.351 0.5-0.182 0.952-0.476 1.322-0.859 0.383-0.371 0.678-0.823 0.866-1.322 0.213-0.582 0.329-1.195 0.343-1.814 0-0.791 0.045-1.045 0.045-3.076s0-2.285-0.045-3.076zM22.082 18.985c-0.005 0.474-0.091 0.944-0.254 1.389-0.119 0.325-0.311 0.619-0.56 0.859-0.242 0.247-0.535 0.438-0.859 0.56-0.445 0.163-0.915 0.248-1.389 0.254-0.747 0.037-1.023 0.045-2.987 0.045s-2.24 0-2.987-0.045c-0.492 0.009-0.982-0.067-1.449-0.224-0.309-0.128-0.589-0.319-0.821-0.56-0.248-0.24-0.437-0.534-0.553-0.859-0.182-0.452-0.283-0.932-0.299-1.419 0-0.747-0.045-1.023-0.045-2.987s0-2.24 0.045-2.987c0.003-0.485 0.092-0.965 0.261-1.419 0.132-0.315 0.333-0.596 0.59-0.821 0.227-0.257 0.507-0.461 0.821-0.597 0.455-0.164 0.935-0.25 1.419-0.254 0.747 0 1.023-0.045 2.987-0.045s2.24 0 2.987 0.045c0.474 0.005 0.944 0.091 1.389 0.254 0.339 0.126 0.644 0.331 0.889 0.597 0.245 0.229 0.436 0.51 0.56 0.821 0.166 0.455 0.252 0.935 0.254 1.419 0.037 0.747 0.045 1.023 0.045 2.987s-0.007 2.24-0.045 2.987zM16.004 12.168c-0.757 0.002-1.497 0.227-2.126 0.649s-1.119 1.021-1.408 1.721c-0.289 0.7-0.364 1.47-0.215 2.212s0.514 1.424 1.050 1.959c0.536 0.535 1.219 0.899 1.961 1.046s1.513 0.071 2.212-0.219c0.7-0.29 1.297-0.781 1.718-1.411s0.645-1.37 0.645-2.127c0.001-0.504-0.098-1.003-0.29-1.469s-0.475-0.889-0.832-1.245c-0.357-0.356-0.78-0.638-1.246-0.83s-0.965-0.289-1.469-0.287zM16.004 18.484c-0.492 0-0.973-0.146-1.381-0.419s-0.728-0.662-0.916-1.116c-0.188-0.454-0.237-0.954-0.141-1.437s0.333-0.925 0.68-1.273c0.348-0.348 0.791-0.585 1.273-0.681s0.982-0.047 1.437 0.142c0.454 0.188 0.843 0.507 1.116 0.916s0.419 0.89 0.419 1.381c0 0.326-0.064 0.65-0.189 0.951s-0.308 0.576-0.539 0.807-0.505 0.414-0.807 0.539c-0.302 0.125-0.625 0.189-0.951 0.189z"></path>
<path fill="none" stroke="#fdfdff" style="stroke: var(--color1, #fdfdff)" stroke-linejoin="miter" stroke-linecap="butt" stroke-miterlimit="4" stroke-width="1" d="M6 0.5h20c3.038 0 5.5 2.462 5.5 5.5v20c0 3.038-2.462 5.5-5.5 5.5h-20c-3.038 0-5.5-2.462-5.5-5.5v-20c0-3.038 2.462-5.5 5.5-5.5z"></path>
</symbol>
<symbol id="icon-x" viewBox="0 0 32 32">
<path fill="none" stroke="#fdfdff" style="stroke: var(--color1, #fdfdff)" stroke-linejoin="round" stroke-linecap="round" stroke-miterlimit="4" stroke-width="2" d="M24 8l-16 16"></path>
<path fill="none" stroke="#fdfdff" style="stroke: var(--color1, #fdfdff)" stroke-linejoin="round" stroke-linecap="round" stroke-miterlimit="4" stroke-width="2" d="M8 8l16 16"></path>
</symbol>
</defs>
</svg>
